<svg width="50" height="27" viewBox="0 0 50 27" fill="none" xmlns="http://www.w3.org/2000/svg">
<path d="M39.4629 21.0613H43.4204V5.26855H39.4629V21.0613Z" fill="white"/>
<path d="M28.9512 21.0613H32.9087V5.26855H28.9512V21.0613Z" fill="white"/>
<path d="M23.3336 5.05609C22.2849 5.05609 21.0739 5.39317 19.7505 5.68031V0.0373535H15.793V21.0611H19.7006V8.63912C21.0239 8.28955 22.2349 8.21465 22.9216 8.21465C23.5208 8.21465 23.6581 8.72651 23.6581 9.26334V21.0486H27.6157V8.87632C27.6157 6.3295 26.2424 5.03112 23.2961 5.03112" fill="white"/>
<path d="M4.50687 5.00625C4.50687 3.67042 5.38078 3.08365 6.69164 3.08365C9.18853 3.08365 13.8202 3.50812 13.8202 3.50812V0.274657C11.8477 0.149813 10.2622 0 6.47941 0C2.75905 0 0 1.6854 0 5.61799C0 11.7229 10.0874 11.9975 10.0874 15.7678C10.0874 17.2909 9.56306 17.9276 8.18977 17.9276C5.50563 17.9276 1.31086 17.5656 1.31086 17.5656V20.7366C3.2834 20.8864 5.6055 21.0362 8.37704 21.0362C12.035 21.0362 14.7191 19.3259 14.7191 15.4307C14.7316 8.91387 4.50687 8.42698 4.50687 5.00625Z" fill="white"/>
<path d="M34.2315 5.26855V21.0613V22.2224C34.2315 23.1088 34.2315 23.8454 32.209 24.1075V26.1924C32.8707 26.3298 33.807 26.3298 33.9943 26.3298C36.3663 26.3298 38.1516 25.5682 38.1516 21.9103V21.0738V5.26855H34.2315Z" fill="white"/>
<path d="M30.9233 0.324707C30.012 0.324707 29.2754 1.06129 29.2754 1.97265C29.2754 2.88401 30.012 3.62059 30.9233 3.62059C31.8347 3.62059 32.5713 2.88401 32.5713 1.97265C32.5588 1.06129 31.8222 0.324707 30.9233 0.324707Z" fill="white"/>
<path d="M26.3167 0.661377C25.5926 0.661377 25.0059 1.24814 25.0059 1.97224C25.0059 2.69634 25.5926 3.2831 26.3167 3.2831C27.0408 3.2831 27.6276 2.69634 27.6276 1.97224C27.6276 1.24814 27.0408 0.661377 26.3167 0.661377Z" fill="white"/>
<path d="M23.022 1.31104C22.66 1.31104 22.3604 1.61066 22.3604 1.97271C22.3604 2.33476 22.66 2.63438 23.022 2.63438C23.3841 2.63438 23.6837 2.33476 23.6837 1.97271C23.6837 1.61066 23.3841 1.31104 23.022 1.31104Z" fill="white"/>
<path d="M36.1805 0C35.0944 0 34.208 0.886393 34.208 1.97254C34.208 3.05868 35.0944 3.94508 36.1805 3.94508C37.2667 3.94508 38.1531 3.05868 38.1531 1.97254C38.1531 0.886393 37.2667 0 36.1805 0Z" fill="white"/>
<path d="M41.4487 3.62059C42.3601 3.62059 43.0967 2.88401 43.0967 1.97265C43.0967 1.06129 42.3601 0.324707 41.4487 0.324707C40.5374 0.324707 39.8008 1.06129 39.8008 1.97265C39.8008 2.88401 40.5374 3.62059 41.4487 3.62059Z" fill="white"/>
<path d="M46.0552 3.2831C46.7793 3.2831 47.3661 2.69634 47.3661 1.97224C47.3661 1.24814 46.7793 0.661377 46.0552 0.661377C45.3311 0.661377 44.7443 1.24814 44.7443 1.97224C44.7319 2.69634 45.3186 3.2831 46.0552 3.2831Z" fill="white"/>
<path d="M49.3375 2.63438C49.6995 2.63438 49.9991 2.33476 49.9991 1.97271C49.9991 1.61066 49.6995 1.31104 49.3375 1.31104C48.9754 1.31104 48.6758 1.61066 48.6758 1.97271C48.6758 2.33476 48.9754 2.63438 49.3375 2.63438Z" fill="white"/>
</svg>
